<?xml version="1.0" encoding="iso-8859-1"?>
<!-- Generator: Adobe Illustrator 19.0.0, SVG Export Plug-In . SVG Version: 6.00 Build 0)  -->
<svg version="1.1" id="Layer_1" xmlns="http://www.w3.org/2000/svg" xmlns:xlink="http://www.w3.org/1999/xlink" x="0px" y="0px"
	 viewBox="0 0 512 512" style="enable-background:new 0 0 512 512;" xml:space="preserve">
<circle style="fill:#CAE8F9;" cx="256" cy="256" r="256"/>
<path style="fill:#84CAFF;" d="M510.226,286.129L276.094,51.37c-5.242-5.591-12.362-8.783-20.094-8.783
	c-10.258,0-19.453,5.605-24.597,14.994l-85.327,155.726H93.133c-19.804,0-36.007,16.203-36.007,36.007v127.748
	c0,9.821,3.986,18.756,10.42,25.268l90.667,90.311C188.344,505.107,221.365,512,256,512C387.19,512,495.312,413.313,510.226,286.129
	z"/>
<path style="fill:#0088FF;" d="M343.553,225.846L258.108,69.905c-0.343-0.625-1.071-1.674-2.108-1.674
	c-1.037,0-1.766,1.049-2.108,1.673l-85.445,155.942l-22.489-12.323l85.445-155.941c5.144-9.389,14.339-14.994,24.597-14.994
	c10.258,0,19.453,5.605,24.597,14.995l85.445,155.94L343.553,225.846z"/>
<path style="fill:#006EF5;" d="M366.04,213.52l-22.49,12.33L258.11,69.91c-0.34-0.63-1.07-1.68-2.11-1.68V42.59
	c10.26,0,19.45,5.6,24.6,14.99L366.04,213.52z"/>
<path style="fill:#FFFFFF;" d="M418.867,413.069H93.133c-19.804,0-36.007-16.203-36.007-36.007V249.315
	c0-19.804,16.203-36.007,36.007-36.007h325.735c19.804,0,36.007,16.203,36.007,36.007v127.748
	C454.874,396.866,438.671,413.069,418.867,413.069z"/>
<path style="fill:#E1E1E3;" d="M454.87,249.31v127.75c0,19.81-16.2,36.01-36,36.01H256V213.31h162.87
	C438.67,213.31,454.87,229.51,454.87,249.31z"/>
<path style="fill:#FF4F19;" d="M411.1,390.878H100.9c-11.33,0-20.6-9.27-20.6-20.6V256.1c0-11.33,9.27-20.6,20.6-20.6h310.2
	c11.33,0,20.6,9.27,20.6,20.6v114.177C431.7,381.607,422.43,390.878,411.1,390.878z"/>
<path style="fill:#EE2600;" d="M431.7,256.1v114.18c0,11.33-9.27,20.6-20.6,20.6H256V235.5h155.1
	C422.43,235.5,431.7,244.77,431.7,256.1z"/>
<g>
	<path style="fill:#FFFFFF;" d="M102.376,312.67c0-3.461,0.625-6.883,1.877-10.266c1.251-3.382,3.076-6.403,5.473-9.067
		c2.396-2.662,5.325-4.819,8.787-6.471c3.462-1.65,7.402-2.477,11.824-2.477c5.219,0,9.732,1.145,13.541,3.435
		c3.807,2.291,6.643,5.273,8.508,8.948l-8.468,5.832c-0.747-1.599-1.651-2.942-2.717-4.035c-1.065-1.091-2.211-1.957-3.435-2.596
		c-1.227-0.64-2.505-1.105-3.835-1.398c-1.332-0.292-2.637-0.439-3.915-0.439c-2.769,0-5.18,0.56-7.229,1.678
		c-2.051,1.118-3.755,2.57-5.113,4.354c-1.357,1.785-2.384,3.809-3.075,6.072c-0.692,2.264-1.039,4.514-1.039,6.75
		c0,2.504,0.4,4.913,1.199,7.23c0.799,2.316,1.93,4.354,3.395,6.111s3.222,3.169,5.272,4.233c2.05,1.066,4.301,1.599,6.751,1.599
		c1.278,0,2.609-0.16,3.994-0.48c1.385-0.319,2.703-0.825,3.955-1.519c1.25-0.691,2.409-1.584,3.475-2.676
		c1.065-1.091,1.918-2.409,2.557-3.954l9.027,5.192c-0.906,2.131-2.197,4.008-3.875,5.632c-1.677,1.625-3.568,2.996-5.672,4.114
		c-2.105,1.118-4.354,1.971-6.75,2.557c-2.396,0.585-4.741,0.879-7.03,0.879c-4.048,0-7.749-0.852-11.104-2.557
		c-3.355-1.704-6.245-3.927-8.668-6.671c-2.424-2.742-4.314-5.857-5.672-9.347C103.055,319.847,102.376,316.292,102.376,312.67z"/>
	<path style="fill:#FFFFFF;" d="M160.614,341.429v-56.721h11.024v47.055h28.92v9.666L160.614,341.429L160.614,341.429z"/>
	<path style="fill:#FFFFFF;" d="M227.879,341.829c-4.153,0-7.922-0.811-11.304-2.436c-3.383-1.624-6.285-3.781-8.708-6.471
		c-2.424-2.689-4.302-5.765-5.632-9.228c-1.332-3.461-1.997-7.003-1.997-10.625c0-3.781,0.705-7.402,2.117-10.865
		c1.41-3.461,3.354-6.522,5.831-9.186c2.477-2.663,5.419-4.779,8.828-6.352c3.407-1.57,7.11-2.357,11.105-2.357
		c4.101,0,7.842,0.839,11.225,2.517c3.381,1.678,6.27,3.874,8.667,6.591c2.398,2.716,4.261,5.806,5.593,9.267
		c1.33,3.463,1.997,6.979,1.997,10.546c0,3.782-0.692,7.39-2.077,10.824c-1.386,3.435-3.303,6.472-5.752,9.107
		c-2.45,2.637-5.38,4.741-8.788,6.311C235.576,341.044,231.874,341.829,227.879,341.829z M211.422,313.069
		c0,2.45,0.372,4.82,1.119,7.11c0.745,2.29,1.823,4.313,3.235,6.071c1.41,1.758,3.142,3.169,5.192,4.234
		c2.05,1.066,4.38,1.598,6.99,1.598c2.663,0,5.02-0.546,7.07-1.638c2.05-1.091,3.781-2.543,5.192-4.354
		c1.411-1.81,2.476-3.847,3.196-6.111c0.719-2.263,1.078-4.565,1.078-6.91c0-2.449-0.387-4.819-1.158-7.11
		c-0.773-2.289-1.865-4.314-3.275-6.071c-1.412-1.758-3.144-3.155-5.193-4.194c-2.051-1.038-4.354-1.558-6.91-1.558
		c-2.663,0-5.033,0.547-7.109,1.638c-2.077,1.093-3.809,2.53-5.193,4.314c-1.386,1.784-2.436,3.808-3.155,6.071
		C211.783,308.423,211.422,310.726,211.422,313.069z"/>
</g>
<g>
	<path style="fill:#E1E1E3;" d="M297.861,299.568c-0.373-0.372-1.052-0.879-2.037-1.517c-0.985-0.64-2.185-1.265-3.595-1.878
		c-1.412-0.611-2.943-1.131-4.594-1.558c-1.651-0.426-3.329-0.639-5.033-0.639c-3.035,0-5.3,0.559-6.79,1.677
		c-1.491,1.119-2.237,2.69-2.237,4.714c0,1.172,0.28,2.145,0.839,2.916c0.56,0.772,1.371,1.451,2.436,2.037
		c1.065,0.587,2.409,1.118,4.035,1.598c1.624,0.479,3.501,0.986,5.632,1.518c2.768,0.747,5.285,1.546,7.55,2.396
		c2.263,0.854,4.18,1.918,5.752,3.196c1.57,1.278,2.782,2.81,3.635,4.594c0.851,1.784,1.278,3.982,1.278,6.59
		c0,3.036-0.573,5.633-1.718,7.79c-1.146,2.156-2.69,3.901-4.634,5.232c-1.944,1.332-4.182,2.304-6.711,2.916
		c-2.53,0.611-5.18,0.918-7.948,0.918c-4.262,0-8.469-0.639-12.623-1.917c-4.153-1.278-7.882-3.088-11.184-5.433l4.873-9.507
		c0.48,0.479,1.344,1.106,2.597,1.878c1.25,0.772,2.728,1.545,4.434,2.316c1.704,0.772,3.595,1.426,5.672,1.958
		s4.207,0.799,6.391,0.799c6.072,0,9.107-1.944,9.107-5.832c0-1.225-0.347-2.264-1.038-3.116c-0.693-0.851-1.678-1.598-2.956-2.236
		c-1.278-0.64-2.823-1.225-4.634-1.758c-1.811-0.531-3.834-1.118-6.071-1.758c-2.716-0.745-5.073-1.558-7.07-2.437
		s-3.662-1.917-4.993-3.115c-1.331-1.198-2.33-2.583-2.995-4.154c-0.667-1.57-0.999-3.447-0.999-5.632
		c0-2.876,0.532-5.433,1.598-7.67c1.065-2.236,2.543-4.101,4.434-5.592c1.891-1.49,4.087-2.623,6.591-3.396
		c2.503-0.771,5.193-1.158,8.069-1.158c3.994,0,7.669,0.627,11.024,1.877c3.355,1.253,6.283,2.73,8.787,4.435L297.861,299.568z"/>
	<path style="fill:#E1E1E3;" d="M352.424,331.763v9.666H313.04v-56.721h38.665v9.667h-27.641v13.66h23.887v8.948h-23.887v14.779
		h28.36V331.763z"/>
	<path style="fill:#E1E1E3;" d="M361.052,341.429v-56.721h20.61c4.634,0,8.694,0.746,12.184,2.237
		c3.487,1.491,6.403,3.515,8.747,6.071c2.344,2.557,4.1,5.552,5.273,8.987c1.171,3.435,1.757,7.098,1.757,10.984
		c0,4.315-0.652,8.216-1.957,11.704c-1.306,3.488-3.183,6.471-5.632,8.947c-2.45,2.477-5.393,4.394-8.828,5.752
		s-7.283,2.037-11.544,2.037h-20.61V341.429z M398.519,312.989c0-2.716-0.373-5.219-1.118-7.509
		c-0.746-2.29-1.837-4.261-3.275-5.912c-1.438-1.65-3.209-2.929-5.313-3.835c-2.104-0.904-4.487-1.357-7.15-1.357h-9.586v37.388
		h9.586c2.717,0,5.126-0.479,7.23-1.438c2.104-0.959,3.86-2.276,5.272-3.954c1.41-1.678,2.489-3.661,3.235-5.952
		C398.146,318.13,398.519,315.653,398.519,312.989z"/>
</g>
<g>
</g>
<g>
</g>
<g>
</g>
<g>
</g>
<g>
</g>
<g>
</g>
<g>
</g>
<g>
</g>
<g>
</g>
<g>
</g>
<g>
</g>
<g>
</g>
<g>
</g>
<g>
</g>
<g>
</g>
</svg>
